<svg xmlns="http://www.w3.org/2000/svg" viewBox="40 330 320 110" role="img" aria-label="NVM Ingeniería en Tableros">
  <style>
    .g{fill:#AAAAB1} /* gris claro de los planos inclinados */
    .y{fill:#FCDA05} /* amarillo */
  </style>
  <!-- piezas grises de fondo -->
  <path class="g" d="M224.6,427.8l28.7-68.2h31.2c1.2,0,2.2,1.1,2,2.4l-3.7,20.4l15.1-21.9c0.4-0.5,1-0.9,1.6-0.9h32.6
    c1.4,0,2.4,1.5,1.8,2.8l-28.6,67c-0.3,0.7-1,1.2-1.8,1.2h-20.6c-1.4,0-2.4-1.5-1.8-2.8l7.7-18.2l-13.6,20.1
    c-0.4,0.6-1,0.9-1.7,0.9h-17.3c-1.2,0-2.2-1.1-2-2.3l3.2-18.3l-8.6,19.4c-0.3,0.7-1,1.2-1.8,1.2h-20.6
    C225,430.6,224,429.1,224.6,427.8z"/>
  <path class="g" d="M162.8,359.6l-3.2,68.9c-0.1,1.1,0.9,2.1,2,2.1h24.3c0.6,0,1.2-0.3,1.6-0.8l48.6-61.3H261l5.1-8.9h-52.3
    c-0.6,0-1.2,0.3-1.6,0.8l-25.3,33l2.3-31.6c0.1-1.2-0.8-2.1-2-2.1H162.8z"/>
  <path class="g" d="M85.4,360.8l-28.6,67c-0.6,1.3,0.4,2.8,1.8,2.8h21.4c1.2,0,2.3-0.7,2.8-1.8l13.3-30.5l6.7,30.8
    c0.2,0.9,1,1.6,2,1.6h19.3c0.8,0,1.5-0.5,1.8-1.2l26.1-61.4h19.4l4.8-8.3h-45.3c-0.8,0-1.5,0.5-1.8,1.2l-10.2,22.8l-4.6-22.4
    c-0.2-0.9-1-1.6-2-1.6H87.3C86.5,359.6,85.8,360.1,85.4,360.8z"/>
  <!-- pieza negra superpuesta -->
  <path d="M215.5,427.8l28.7-68.2h31.2c1.2,0,2.2,1.1,2,2.4l-3.7,20.4l15.1-21.9c0.4-0.5,1-0.9,1.6-0.9H323
    c1.4,0,2.4,1.5,1.8,2.8l-28.6,67c-0.3,0.7-1,1.2-1.8,1.2h-20.6c-1.4,0-2.4-1.5-1.8-2.8l7.7-18.2l-13.6,20.1c-0.4,0.6-1,0.9-1.7,0.9
    h-17.3c-1.2,0-2.2-1.1-2-2.3l3.2-18.3l-8.6,19.4c-0.3,0.7-1,1.2-1.8,1.2h-20.6C215.9,430.6,215,429.1,215.5,427.8z"/>
  <!-- pieza amarilla -->
  <path class="y" d="M153.7,359.6l-3.2,68.9c-0.1,1.1,0.9,2.1,2,2.1h24.3c0.6,0,1.2-0.3,1.6-0.8l48.6-61.3h24.9l5.1-8.9h-52.3
    c-0.6,0-1.2,0.3-1.6,0.8l-25.3,33l2.3-31.6c0.1-1.2-0.8-2.1-2-2.1H153.7z"/>
  <!-- pieza negra izquierda -->
  <path d="M76.4,360.8l-28.6,67c-0.6,1.3,0.4,2.8,1.8,2.8H71c1.2,0,2.3-0.7,2.8-1.8L87,398.2l6.7,30.8c0.2,0.9,1,1.6,2,1.6H115
    c0.8,0,1.5-0.5,1.8-1.2L143,368h19.4l4.8-8.3H122c-0.8,0-1.5,0.5-1.8,1.2L110,383.6l-4.6-22.4c-0.2-0.9-1-1.6-2-1.6H78.2
    C77.4,359.6,76.7,360.1,76.4,360.8z"/>
  <!-- detalles -->
  <circle class="y" cx="159.6" cy="364.1" r="1.9"/>
  <circle cx="249.3" cy="364.1" r="1.9"/>
</svg>
